PathFileType  4	(X/Y/Z)
DataRate	CameraRate	NumFrames	NumMarkers	Units	OrigDataRate	OrigDataStartFrame	OrigNumFrames
  200.0 	  200.0 	    10 	     40 	mm 	  200.0 	      129 	    515
Frame#	Time	R.Shoulder			R.Clavicle			R.Bicep			R.Elbow			R.Forearm			R.Wrist			L.Shoulder			L.Clavicle			L.Scapula			L.Bicep			L.Elbow			L.Forearm			L.Wrist			R.ASIS			R.PSIS			S2			L.PSIS			L.ASIS			R.TH1			R.TH2			R.TH3			R.Knee			R.SH1			R.SH2			R.SH3			R.SH4			R.Ankle			R.Heel			R.MT5			L.TH1			L.TH2			L.TH3			L.TH4			L.Knee			L.SH1			L.SH2			L.SH3			L.Ankle			L.Heel			L.MT5			
		X1	Y1	Z1	X2	Y2	Z2	X3	Y3	Z3	X4	Y4	Z4	X5	Y5	Z5	X6	Y6	Z6	X7	Y7	Z7	X8	Y8	Z8	X9	Y9	Z9	X10	Y10	Z10	X11	Y11	Z11	X12	Y12	Z12	X13	Y13	Z13	X14	Y14	Z14	X15	Y15	Z15	X16	Y16	Z16	X17	Y17	Z17	X18	Y18	Z18	X19	Y19	Z19	X20	Y20	Z20	X21	Y21	Z21	X22	Y22	Z22	X23	Y23	Z23	X24	Y24	Z24	X25	Y25	Z25	X26	Y26	Z26	X27	Y27	Z27	X28	Y28	Z28	X29	Y29	Z29	X30	Y30	Z30	X31	Y31	Z31	X32	Y32	Z32	X33	Y33	Z33	X34	Y34	Z34	X35	Y35	Z35	X36	Y36	Z36	X37	Y37	Z37	X38	Y38	Z38	X39	Y39	Z39	X40	Y40	Z40	

129	0.64000	-815.936	1354.323	-5.183	-774.015	1330.292	-156.618	-770.860	1136.103	-0.227	-825.062	1055.867	110.973	-715.272	994.959	62.278	-674.210	893.837	111.587	-834.550	1328.142	-388.406	-768.821	1322.988	-213.242	-954.597	1327.616	-271.975	-839.921	1149.463	-404.112	-959.420	1041.015	-455.897	-917.360	932.240	-462.737	-983.340	839.809	-507.114	-760.751	896.842	-46.953	-998.194	958.265	-131.852	-1002.965	948.838	-183.985	-991.411	957.156	-237.831	-762.805	900.496	-307.071	-840.846	670.277	4.231	-989.379	692.535	-29.549	-994.442	619.415	-44.802	-966.686	472.377	-37.981	-956.560	329.963	-21.693	-967.421	257.352	-35.097	-1059.568	358.529	-73.076	-1073.280	284.469	-80.334	-1035.743	75.744	-73.311	-1099.478	46.713	-128.312	-923.574	22.133	-32.927	-709.760	674.155	-361.622	-672.185	603.746	-335.355	-841.106	608.252	-372.040	-810.485	536.829	-351.042	-744.199	482.816	-355.665	-687.971	402.914	-368.153	-794.446	385.309	-343.031	-784.558	308.873	-345.736	-660.492	94.071	-352.885	-730.951	37.615	-307.684	-552.938	59.235	-372.659
130	0.64500	-808.848	1352.884	-5.615	-767.210	1328.760	-157.142	-763.223	1134.932	-0.439	-816.598	1054.765	111.109	-706.687	994.389	61.928	-664.865	893.540	111.095	-828.387	1326.660	-388.867	-762.178	1321.438	-213.739	-948.044	1326.170	-272.045	-835.095	1148.181	-404.930	-956.594	1041.052	-455.985	-915.427	932.016	-464.334	-983.333	840.653	-508.336	-754.397	895.293	-47.141	-991.834	957.381	-132.524	-996.554	947.744	-184.643	-984.880	955.685	-238.490	-756.108	898.586	-307.231	-836.184	669.266	3.786	-984.605	692.466	-29.632	-990.217	619.408	-44.876	-963.555	472.146	-38.156	-954.597	329.635	-21.876	-965.932	257.087	-35.263	-1057.394	358.873	-73.285	-1071.608	284.900	-80.535	-1035.506	75.867	-73.452	-1099.382	46.770	-128.430	-923.601	22.130	-32.877	-703.251	672.099	-360.546	-665.924	601.616	-334.120	-834.652	606.335	-371.777	-804.170	534.865	-350.586	-737.158	481.026	-355.043	-678.170	403.156	-367.509	-784.166	381.804	-343.520	-771.866	305.767	-346.827	-640.742	94.745	-354.159	-709.422	35.405	-309.656	-531.861	63.778	-373.638
131	0.65000	-801.755	1351.364	-6.069	-760.387	1327.154	-157.681	-755.589	1133.673	-0.685	-808.146	1053.587	111.203	-698.123	993.713	61.532	-655.571	893.150	110.597	-822.177	1325.137	-389.350	-755.507	1319.820	-214.262	-941.459	1324.676	-272.154	-830.197	1146.876	-405.774	-953.685	1041.060	-456.071	-913.399	931.803	-465.904	-983.129	841.475	-509.492	-748.027	893.723	-47.339	-985.453	956.418	-133.235	-990.126	946.566	-185.342	-978.335	954.123	-239.195	-749.394	896.602	-307.401	-831.458	668.225	3.362	-979.758	692.344	-29.711	-985.906	619.352	-44.951	-960.312	471.881	-38.328	-952.549	329.278	-22.050	-964.373	256.798	-35.423	-1055.118	359.212	-73.488	-1069.855	285.333	-80.729	-1035.250	75.996	-73.588	-1099.277	46.825	-128.547	-923.627	22.136	-32.824	-696.769	669.998	-359.514	-659.658	599.453	-332.956	-828.200	604.339	-371.491	-797.839	532.838	-350.135	-730.046	479.228	-354.500	-668.384	403.367	-366.885	-773.840	378.423	-344.059	-759.240	302.827	-347.962	-621.418	95.606	-355.346	-688.345	33.510	-311.567	-511.344	68.403	-374.491
132	0.65500	-794.655	1349.767	-6.546	-753.547	1325.480	-158.236	-747.962	1132.328	-0.969	-799.712	1052.338	111.250	-689.586	992.935	61.094	-646.332	892.670	110.093	-815.922	1323.577	-389.858	-748.809	1318.139	-214.814	-934.841	1323.139	-272.303	-825.226	1145.552	-406.643	-950.683	1041.038	-456.154	-911.272	931.597	-467.445	-982.725	842.268	-510.583	-741.647	892.137	-47.548	-979.050	955.375	-133.984	-983.680	945.303	-186.083	-971.777	952.474	-239.945	-742.664	894.556	-307.585	-826.668	667.153	2.965	-974.837	692.166	-29.790	-981.508	619.244	-45.032	-956.957	471.582	-38.495	-950.412	328.890	-22.216	-962.743	256.483	-35.576	-1052.738	359.547	-73.684	-1068.020	285.770	-80.916	-1034.975	76.132	-73.721	-1099.166	46.877	-128.661	-923.651	22.150	-32.769	-690.296	667.877	-358.535	-653.365	597.283	-331.869	-821.730	602.280	-371.190	-791.465	530.766	-349.699	-722.848	477.434	-354.036	-658.622	403.538	-366.289	-763.489	375.182	-344.634	-746.712	300.056	-349.117	-602.584	96.612	-356.432	-667.803	31.905	-313.395	-491.448	73.039	-375.213
133	0.66000	-787.547	1348.099	-7.049	-746.690	1323.745	-158.809	-740.342	1130.904	-1.296	-791.302	1051.022	111.248	-681.079	992.060	60.613	-637.151	892.105	109.585	-809.621	1321.985	-390.391	-742.085	1316.400	-215.397	-928.191	1321.562	-272.494	-820.182	1144.211	-407.537	-947.580	1040.985	-456.234	-909.039	931.394	-468.956	-982.116	843.028	-511.612	-735.259	890.538	-47.765	-972.625	954.251	-134.770	-977.216	943.957	-186.862	-965.208	950.743	-240.735	-735.916	892.460	-307.783	-821.813	666.050	2.597	-969.840	691.931	-29.875	-977.020	619.082	-45.122	-953.488	471.245	-38.660	-948.186	328.469	-22.372	-961.043	256.144	-35.724	-1050.250	359.878	-73.876	-1066.098	286.212	-81.100	-1034.681	76.277	-73.850	-1099.048	46.928	-128.772	-923.669	22.171	-32.712	-683.814	665.760	-357.617	-647.022	595.136	-330.865	-815.219	600.175	-370.886	-785.022	528.666	-349.286	-715.550	475.657	-353.651	-648.893	403.659	-365.726	-753.139	372.094	-345.227	-734.318	297.454	-350.266	-584.301	97.721	-357.405	-647.878	30.563	-315.117	-472.233	77.614	-375.801
134	0.66500	-780.428	1346.366	-7.580	-739.817	1321.953	-159.401	-732.733	1129.406	-1.669	-782.923	1049.645	111.191	-672.608	991.094	60.094	-628.035	891.458	109.073	-803.276	1320.368	-390.951	-735.338	1314.610	-216.014	-921.508	1319.950	-272.728	-815.064	1142.856	-408.453	-944.366	1040.900	-456.312	-906.694	931.192	-470.436	-981.299	843.748	-512.581	-728.869	888.928	-47.991	-966.179	953.048	-135.588	-970.733	942.529	-187.677	-958.627	948.935	-241.561	-729.149	890.326	-307.997	-816.893	664.916	2.260	-964.769	691.639	-29.969	-972.441	618.864	-45.227	-949.903	470.869	-38.822	-945.869	328.016	-22.520	-959.271	255.780	-35.865	-1047.650	360.206	-74.065	-1064.088	286.660	-81.280	-1034.369	76.431	-73.974	-1098.927	46.978	-128.877	-923.681	22.198	-32.653	-677.305	663.671	-356.769	-640.608	593.037	-329.949	-808.645	598.041	-370.588	-778.483	526.554	-348.901	-708.142	473.910	-353.342	-639.207	403.719	-365.202	-742.815	369.171	-345.825	-722.094	295.018	-351.387	-566.628	98.888	-358.254	-628.645	29.455	-316.716	-453.753	82.055	-376.253
135	0.67000	-773.297	1344.575	-8.142	-732.930	1320.111	-160.014	-725.136	1127.839	-2.092	-774.581	1048.210	111.077	-664.178	990.040	59.538	-618.987	890.733	108.560	-796.886	1318.728	-391.540	-728.568	1312.777	-216.668	-914.795	1318.307	-273.005	-809.874	1141.489	-409.392	-941.032	1040.779	-456.388	-904.228	930.986	-471.885	-980.269	844.424	-513.494	-722.477	887.310	-48.224	-959.710	951.766	-136.436	-964.228	941.020	-188.524	-952.036	947.056	-242.420	-722.361	888.166	-308.231	-811.909	663.750	1.954	-959.622	691.288	-30.078	-967.768	618.587	-45.350	-946.200	470.451	-38.983	-943.458	327.529	-22.659	-957.428	255.392	-36.002	-1044.934	360.532	-74.255	-1061.986	287.114	-81.461	-1034.039	76.598	-74.093	-1098.804	47.028	-128.975	-923.683	22.228	-32.593	-670.750	661.631	-355.996	-634.101	591.009	-329.124	-801.986	595.894	-370.307	-771.825	524.448	-348.552	-700.614	472.202	-353.107	-629.576	403.706	-364.721	-732.544	366.425	-346.413	-710.074	292.745	-352.454	-549.618	100.067	-358.972	-610.180	28.553	-318.176	-436.057	86.291	-376.570
136	0.67500	-766.152	1342.731	-8.736	-726.028	1318.225	-160.648	-717.553	1126.208	-2.569	-766.284	1046.723	110.902	-655.793	988.906	58.949	-610.014	889.935	108.045	-790.454	1317.072	-392.158	-721.777	1310.906	-217.361	-908.051	1316.638	-273.327	-804.610	1140.112	-410.351	-937.570	1040.622	-456.465	-901.634	930.772	-473.301	-979.022	845.049	-514.352	-716.084	885.685	-48.466	-953.217	950.408	-137.310	-957.702	939.433	-189.399	-945.432	945.113	-243.305	-715.551	885.991	-308.486	-806.859	662.553	1.678	-954.398	690.876	-30.207	-962.999	618.249	-45.495	-942.377	469.990	-39.145	-940.952	327.008	-22.791	-955.513	254.980	-36.134	-1042.101	360.857	-74.446	-1059.791	287.578	-81.643	-1033.692	76.780	-74.207	-1098.681	47.081	-129.065	-923.675	22.260	-32.533	-664.129	659.660	-355.305	-627.481	589.075	-328.393	-795.223	593.751	-370.051	-765.026	522.364	-348.244	-692.961	470.542	-352.939	-620.010	403.610	-364.286	-722.356	363.862	-346.977	-698.292	290.627	-353.444	-533.321	101.216	-359.552	-592.547	27.828	-319.484	-419.189	90.251	-376.755
137	0.68000	-758.991	1340.841	-9.367	-719.113	1316.304	-161.307	-709.986	1124.518	-3.101	-758.039	1045.189	110.664	-647.458	987.696	58.332	-601.121	889.065	107.530	-783.979	1315.403	-392.807	-714.966	1309.007	-218.096	-901.278	1314.947	-273.695	-799.273	1138.726	-411.328	-933.970	1040.427	-456.545	-898.904	930.544	-474.685	-977.555	845.618	-515.161	-709.692	884.054	-48.716	-946.700	948.976	-138.207	-951.151	937.772	-190.299	-938.816	943.115	-244.213	-708.714	883.815	-308.765	-801.743	661.324	1.432	-949.098	690.403	-30.362	-958.134	617.849	-45.667	-938.432	469.484	-39.307	-938.351	326.453	-22.915	-953.527	254.547	-36.262	-1039.147	361.183	-74.641	-1057.500	288.052	-81.830	-1033.328	76.979	-74.316	-1098.562	47.143	-129.146	-923.653	22.290	-32.471	-657.426	657.776	-354.702	-620.731	587.250	-327.756	-788.339	591.627	-369.829	-758.068	520.316	-347.981	-685.180	468.938	-352.834	-610.520	403.421	-363.901	-712.276	361.490	-347.508	-686.780	288.658	-354.338	-517.780	102.293	-359.993	-575.809	27.253	-320.631	-403.186	93.868	-376.811
138	0.68500	-751.814	1338.911	-10.034	-712.183	1314.353	-161.992	-702.436	1122.776	-3.692	-749.851	1043.610	110.360	-639.179	986.416	57.688	-592.314	888.128	107.015	-777.463	1313.725	-393.488	-708.136	1307.085	-218.874	-894.476	1313.239	-274.109	-793.863	1137.333	-412.323	-930.224	1040.191	-456.631	-896.029	930.299	-476.035	-975.862	846.126	-515.922	-703.299	882.418	-48.975	-940.156	947.474	-139.121	-944.574	936.040	-191.218	-932.187	941.070	-245.136	-701.849	881.647	-309.071	-796.559	660.065	1.212	-943.721	689.869	-30.549	-953.169	617.385	-45.872	-934.362	468.932	-39.473	-935.652	325.866	-23.035	-951.469	254.094	-36.388	-1036.069	361.512	-74.844	-1055.110	288.541	-82.023	-1032.948	77.201	-74.418	-1098.448	47.217	-129.216	-923.617	22.316	-32.409	-650.623	655.991	-354.190	-613.835	585.551	-327.215	-781.317	589.539	-369.646	-750.935	518.318	-347.767	-677.269	467.395	-352.786	-601.118	403.129	-363.565	-702.333	359.313	-347.996	-675.568	286.830	-355.118	-503.031	103.258	-360.295	-560.016	26.802	-321.612	-388.077	97.083	-376.745
